<!-- <?xml version="1.0" encoding="utf-8"?> -->
<!-- Generator: Adobe Illustrator 26.4.1, SVG Export Plug-In . SVG Version: 6.00 Build 0)  -->
	 <!-- viewBox="0 0 63.63 64.1" style="enable-background:new 0 0 63.63 64.1;" xml:space="preserve" -->
<svg version="1.1" id="_x31_7"  x="0px" y="0px"
  viewBox="0 0 63.63 64.1" >
<!-- <style type="text/css">
	.st0{fill-rule:evenodd;clip-rule:evenodd;fill:#0084C7;}
	.st1{fill:#FFFFFF;}
</style> -->
<path class="st0s" fill="#0084C7" d="M54.32,9.38L54.32,9.38C48.54,3.56,40.62,0,31.84,0C23.06,0,15.08,3.56,9.35,9.38C3.58,15.2,0,23.18,0,32.03
	s3.58,16.88,9.35,22.65c5.73,5.81,13.7,9.42,22.49,9.42c8.78,0,16.7-3.61,22.48-9.42c5.78-5.77,9.31-13.8,9.31-22.65
	S60.09,15.2,54.32,9.38L54.32,9.38z"/>
<g>
	<path class="st1" fill="#FFFFFF" d="M31.81,16.31L18.57,27.66v18.52c0,1.49,1.2,2.69,2.69,2.69h21.12c1.49,0,2.69-1.2,2.69-2.69V27.66L31.81,16.31
		z M30.59,45.02c0,0.59-0.48,1.06-1.06,1.06H24.5c-0.59,0-1.06-0.48-1.06-1.06v-11.5c0-0.59,0.48-1.06,1.06-1.06h5.03
		c0.59,0,1.06,0.48,1.06,1.06V45.02z M40.6,36.86c0,0.51-0.41,0.92-0.92,0.92h-6.07c-0.51,0-0.92-0.41-0.92-0.92v-3.48
		c0-0.51,0.41-0.92,0.92-0.92h6.07c0.51,0,0.92,0.41,0.92,0.92V36.86z"/>
	<path class="st1" d="M41.1,27.46h-2.8c-0.3,0-0.55-0.25-0.55-0.55v-8.89c0-0.3,0.25-0.55,0.55-0.55h2.8c0.3,0,0.55,0.25,0.55,0.55
		v8.89C41.65,27.21,41.4,27.46,41.1,27.46z"/>
	<g>
		<path class="st1" fill="#FFFFFF" d="M46.5,31.74L32.94,20.22c-0.65-0.55-1.6-0.55-2.25,0L17.13,31.74c-0.73,0.62-1.83,0.53-2.45-0.2l0,0
			c-0.62-0.73-0.53-1.83,0.2-2.45l15.81-13.44c0.65-0.55,1.6-0.55,2.25,0l15.81,13.44c0.73,0.62,0.82,1.72,0.2,2.45l0,0
			C48.33,32.27,47.23,32.36,46.5,31.74z"/>
	</g>
</g>
</svg>
