<?xml version="1.0" encoding="UTF-8"?>
<svg id="_17" data-name="17" xmlns="http://www.w3.org/2000/svg" viewBox="0 0 63.63 64.1">
  <defs>
    <style>
      .cls-1 {
        fill: #fff;
      }

      .cls-2 {
        fill: none;
        stroke: #fff;
        stroke-miterlimit: 10;
        stroke-width: .68px;
      }

      .cls-3 {
        fill: #0084c7;
        fill-rule: evenodd;
      }
    </style>
  </defs>
  <path class="cls-3" d="M54.32,9.38h0C48.54,3.56,40.62,0,31.84,0S15.08,3.56,9.35,9.38C3.58,15.2,0,23.18,0,32.03s3.58,16.88,9.35,22.65c5.73,5.81,13.7,9.42,22.49,9.42s16.7-3.61,22.48-9.42c5.78-5.77,9.31-13.8,9.31-22.65s-3.53-16.83-9.31-22.65h0Z"/>
  <g>
    <path class="cls-2" d="M38.05,41.48v2.05h-12.48v-2.05c0-.17,.09-.32,.24-.4l.95-.51c1.64-.89,2.65-2.56,2.65-4.38v-2.16h4.8v2.16c0,1.82,1.01,3.49,2.65,4.38l.95,.51c.15,.08,.24,.24,.24,.4Z"/>
    <path class="cls-2" d="M39.97,44.06v8.4H23.65v-8.4c0-.26,.22-.48,.48-.48h15.36c.26,0,.48,.22,.48,.48Z"/>
    <rect class="cls-1" x="22.21" y="51.74" width="19.2" height="1.92" rx=".48" ry=".48"/>
    <path class="cls-2" d="M50.29,13.8h-6.73c0-.32,.01-.64,.01-.96,.33,0,.63-.13,.85-.35,.22-.22,.35-.52,.35-.85,0-.66-.54-1.2-1.2-1.2H20.05c-.33,0-.63,.13-.85,.35-.22,.22-.35,.52-.35,.85,0,.66,.54,1.2,1.2,1.2,0,.32,0,.64,.01,.96h-6.73c-.53,0-.96,.43-.96,.96v4.08c0,6.63,5.37,12.01,12,12.01h1.29c1.79,1.98,3.9,3.12,6.15,3.12s4.36-1.14,6.15-3.12h1.29c6.63,0,12-5.38,12-12.01v-4.08c0-.53-.43-.96-.96-.96ZM14.29,18.84v-3.12h5.87c.4,5.27,1.88,9.92,4.03,13.21-5.47-.1-9.9-4.58-9.9-10.08Zm35.04,0c0,5.5-4.42,9.98-9.9,10.08,2.15-3.29,3.63-7.94,4.03-13.21h5.87v3.12Z"/>
  </g>
</svg>